<svg width="301" height="301" viewBox="0 0 301 301" fill="none" xmlns="http://www.w3.org/2000/svg">
<path d="M0.379883 150.708C0.379883 190.491 16.1834 228.644 44.3139 256.775C72.4443 284.905 110.597 300.709 150.38 300.709C190.162 300.709 228.315 284.905 256.446 256.775C284.576 228.644 300.38 190.491 300.38 150.708C300.38 110.926 284.576 72.7729 256.446 44.6425C228.315 16.512 190.162 0.708496 150.38 0.708496C110.597 0.708496 72.4443 16.512 44.3139 44.6425C16.1834 72.7729 0.379883 110.926 0.379883 150.708Z" fill="#495057"/>
<path d="M150.365 283.197C223.893 283.197 283.494 223.596 283.494 150.068C283.494 76.5406 223.893 16.9399 150.365 16.9399C76.8374 16.9399 17.2368 76.5406 17.2368 150.068C17.2368 223.596 76.8374 283.197 150.365 283.197ZM150.365 27.1806C218.128 27.1806 273.253 82.3061 273.253 150.068C273.253 164.446 270.642 178.2 266.085 191.031H150.365C127.774 191.031 109.403 172.659 109.403 150.068C109.403 127.478 127.774 109.106 150.365 109.106C172.956 109.106 191.328 127.478 191.328 150.068H201.569C201.569 121.835 178.599 98.8652 150.365 98.8652C122.132 98.8652 99.1621 121.835 99.1621 150.068C99.1621 178.302 122.132 201.272 150.365 201.272H261.937C256.745 212.547 249.905 222.869 241.702 231.994H150.365C105.194 231.994 68.4401 195.24 68.4401 150.068C68.4401 104.897 105.194 68.1432 150.365 68.1432C195.537 68.1432 232.291 104.897 232.291 150.068H242.531C242.531 99.2543 201.19 57.9026 150.365 57.9026C99.541 57.9026 58.1994 99.2543 58.1994 150.068C58.1994 200.883 99.541 242.234 150.365 242.234H231.379C209.731 261.292 181.415 272.956 150.365 272.956C82.6029 272.956 27.4775 217.831 27.4775 150.068C27.4775 82.3061 82.6029 27.1806 150.365 27.1806Z" fill="#DEE2E6"/>
</svg>
